<svg width="311" height="103" fill="none" xmlns="http://www.w3.org/2000/svg"><path d="M138.919 49.244h-7.518v-16.76c0-.52-.265-.795-.519-.795a.633.633 0 00-.52.52l-4.815 17.024h-4.811l-5.081-16.827c-.13-.52-.395-.79-.592-.79-.198 0-.52.395-.52 1.04v16.562H107V.94h7.517l7.793 27.65c.197.79.597 1.185.992 1.185s.722-.395.925-1.185L131.412.94h7.517l-.01 48.303zm36.272-.068h-7.85l-2.442-10.818a.805.805 0 00-.595-.706.814.814 0 00-.324-.021h-11.149a.97.97 0 00-.925.592l-2.379 11.02h-7.574l11.076-48.24h11.564l10.598 48.173zm-16.489-38.665c-.068-.135-.13-.203-.265-.203s-.265.068-.265.203l-4.613 20.518a.512.512 0 00.133.465.52.52 0 00.459.153h8.572a.593.593 0 00.659-.66l-4.68-20.476zm24.266-1.736a4.355 4.355 0 01-3.175-7.487 4.353 4.353 0 013.175-1.22 4.404 4.404 0 014.421 4.356 4.365 4.365 0 01-4.421 4.35zm3.761 40.385h-7.522V11.566h7.522V49.16zm49.26-41.227h-8.577a1.556 1.556 0 00-1.449 1.653v39.59h-7.518V9.518c0-.925-.394-1.585-1.252-1.585h-8.774V.94h27.57v6.992zm29.477 41.243h-7.849l-2.442-10.818a.827.827 0 00-.306-.559.813.813 0 00-.614-.168h-11.148a.954.954 0 00-.92.592l-2.374 11.02h-7.585l11.076-48.24h11.544l10.618 48.173zm-16.489-38.665c-.062-.135-.13-.203-.265-.203s-.26.068-.26.203l-4.618 20.518a.523.523 0 00.35.578.519.519 0 00.242.02h8.577a.59.59 0 00.627-.397.59.59 0 00.028-.264l-4.681-20.455zm24.266-1.736a4.347 4.347 0 01-3.175-1.22 4.363 4.363 0 011.464-7.2 4.347 4.347 0 011.711-.287 4.403 4.403 0 014.421 4.356 4.365 4.365 0 01-4.421 4.35zm3.762 40.385h-7.518V11.566h7.518V49.16zm33.3-11.53c0 7.855-4.156 12.736-14.51 12.736-11.143 0-14.11-3.119-14.11-14.519h7.793c0 5.412.592 7.195 6.328 7.195 5.278 0 6.4-1.98 6.4-5.541 0-2.444-.332-3.9-5.081-7.195l-4.416-3.119c-5.543-3.893-11.013-6.732-11.013-14.976C281.696 5.214 285.192 0 296.003 0c11.211 0 13.85 2.968 13.85 13.661h-7.657c0-5.942-2.245-6.404-6.401-6.404-4.675 0-6.13 1.85-6.13 5.016 0 2.246.66 3.764 6.754 7.725l5.008 3.296c4.291 2.838 8.245 6.534 8.774 11.618.037.935.104 1.86.104 2.719zM158.519 54.826l-8.577 48.173h-7.845l-3.891-23.621c-.068-.197-.197-.333-.333-.333a.369.369 0 00-.394.333l-4.219 23.621h-7.86l-7.923-48.173h7.648l3.839 27.525a.41.41 0 00.273.441.416.416 0 00.184.022.622.622 0 00.519-.52l4.219-27.457h7.652l3.834 27.514a.433.433 0 00.02.186.422.422 0 00.443.277.622.622 0 00.519-.52l4.219-27.457 7.673-.01zm6.514 7.772a4.346 4.346 0 01-3.175-1.22 4.353 4.353 0 01-1.328-3.134 4.353 4.353 0 014.503-4.354 4.351 4.351 0 014.504 4.354 4.353 4.353 0 01-4.504 4.354zm3.757 40.386h-7.518V65.388h7.518v37.595zm31.326-41.228h-8.577a1.56 1.56 0 00-1.45 1.653v39.59h-7.517V63.34c0-.925-.395-1.585-1.252-1.585h-8.774v-6.992h27.57v6.992zm29.056 41.243h-7.496V86.831c0-.79-.265-1.32-1.185-1.32h-8.639a1.351 1.351 0 00-1.19 1.32v16.167h-8.109V54.825h8.109v22.109a1.181 1.181 0 001.039 1.253h8.775c.722 0 1.184-.395 1.184-1.383V54.825h7.512v48.173zm15.066-.988a.95.95 0 01-.272.716.94.94 0 01-.715.272h-5.87a.936.936 0 01-.993-.988v-5.874a.95.95 0 01.06-.388.944.944 0 01.933-.6h5.87a.931.931 0 01.927.602.928.928 0 01.06.386v5.874zm17.398 0a.927.927 0 01-.272.716.936.936 0 01-.715.272h-5.87a.933.933 0 01-.992-.988v-5.874a.933.933 0 01.992-.987h5.87a.936.936 0 01.987.987v5.874zm17.409 0s-.013.264-.06.387a.935.935 0 01-.927.601h-5.87a.931.931 0 01-.932-.6.93.93 0 01-.061-.388v-5.874a.934.934 0 01.605-.93.933.933 0 01.388-.057h5.87a.936.936 0 01.987.987v5.874z" fill="#36223E"/><path d="M0 24h87.778l-8.34 79H8.779L0 24z" fill="#BD482E"/><path d="M4.389 35.411h79l-5.372 51.214s-12.034 3.208-34.642 3.208c-22.608 0-33.193-3.208-33.193-3.208L4.39 35.411z" fill="#F5EAD4"/><path d="M7.9 76.667C21.61 69.81 43.883 59.11 43.883 59.11l35.995 17.556" stroke="#BD482E" stroke-width="2"/><path d="M80.755 64.378l-36.85 25.455L7.022 64.378" stroke="#BD482E" stroke-width="2"/><path d="M8.778 90.711l27.65-14.044L71.1 59.11l10.972 5.419" stroke="#BD482E" stroke-width="2"/><path d="M77.244 88.956l-25.016-12.29-35.55-17.555-10.534 5.333" stroke="#BD482E" stroke-width="2"/></svg>