<svg width="283" height="147" viewBox="0 0 283 147" fill="none" xmlns="http://www.w3.org/2000/svg">
<rect x="1" y="4" width="282" height="137" fill="#EEDDC2"/>
<path d="M124.469 70.815H119.307V59.3066C119.307 58.9496 119.125 58.7604 118.95 58.7604C118.861 58.7749 118.778 58.8172 118.714 58.8813C118.65 58.9454 118.608 59.0279 118.593 59.1174L115.286 70.8079H111.983L108.494 59.253C108.405 58.896 108.223 58.7104 108.087 58.7104C107.952 58.7104 107.731 58.9817 107.731 59.4244V70.7972H102.551V37.6461H107.713L113.064 56.6329C113.2 57.1755 113.474 57.4468 113.745 57.4468C114.016 57.4468 114.241 57.1755 114.38 56.6329L119.314 37.6461H124.476L124.469 70.815ZM149.377 70.7686H143.986L142.31 63.3402C142.302 63.2654 142.28 63.1929 142.244 63.127C142.208 63.0611 142.159 63.003 142.1 62.9564C142.041 62.9098 141.973 62.8755 141.901 62.8556C141.828 62.8357 141.753 62.8305 141.678 62.8405H134.023C133.888 62.8363 133.755 62.8729 133.642 62.9456C133.529 63.0182 133.44 63.1234 133.388 63.2474L131.754 70.815H126.552L134.158 37.6889H142.099L149.377 70.7686ZM138.054 44.2178C138.007 44.125 137.965 44.0786 137.872 44.0786C137.779 44.0786 137.69 44.125 137.69 44.2178L134.522 58.3071C134.51 58.3638 134.512 58.4224 134.528 58.4781C134.544 58.5337 134.574 58.5847 134.614 58.6265C134.654 58.6683 134.703 58.6997 134.758 58.7181C134.813 58.7364 134.872 58.7412 134.929 58.7318H140.815C140.876 58.7394 140.938 58.7328 140.997 58.7127C141.055 58.6925 141.108 58.6594 141.152 58.6157C141.196 58.572 141.229 58.5189 141.249 58.4605C141.269 58.4021 141.275 58.3398 141.268 58.2785L138.054 44.2178ZM154.717 43.0255C154.316 43.0394 153.916 42.9723 153.542 42.8283C153.167 42.6843 152.825 42.4664 152.537 42.1874C152.248 41.9084 152.019 41.5741 151.862 41.2045C151.705 40.8349 151.624 40.4375 151.624 40.036C151.624 39.6344 151.705 39.237 151.862 38.8674C152.019 38.4978 152.248 38.1635 152.537 37.8846C152.825 37.6056 153.167 37.3876 153.542 37.2436C153.916 37.0996 154.316 37.0325 154.717 37.0464C155.515 37.0435 156.282 37.3563 156.851 37.9166C157.419 38.4769 157.744 39.2393 157.753 40.0378C157.752 40.4339 157.672 40.8259 157.518 41.1911C157.364 41.5562 157.14 41.8872 156.858 42.1651C156.575 42.4429 156.241 42.662 155.874 42.8097C155.506 42.9573 155.113 43.0307 154.717 43.0255ZM157.3 70.7579H152.134V44.9424H157.3V70.7579ZM191.126 42.4472H185.236C184.954 42.4665 184.691 42.5967 184.505 42.8094C184.318 43.0221 184.224 43.3 184.241 43.5824V70.7686H179.079V43.536C179.079 42.9006 178.808 42.4472 178.219 42.4472H172.194V37.6461H191.126V42.4472ZM211.368 70.7686H205.977L204.301 63.3402C204.293 63.2654 204.271 63.1929 204.235 63.127C204.199 63.0611 204.15 63.003 204.091 62.9564C204.032 62.9098 203.964 62.8755 203.892 62.8556C203.819 62.8357 203.744 62.8305 203.669 62.8405H196.014C195.879 62.8355 195.747 62.8719 195.634 62.9446C195.521 63.0174 195.433 63.1231 195.382 63.2474L193.752 70.815H188.543L196.149 37.6889H204.076L211.368 70.7686ZM200.045 44.2178C200.002 44.125 199.956 44.0786 199.863 44.0786C199.77 44.0786 199.684 44.125 199.684 44.2178L196.513 58.3071C196.504 58.3627 196.508 58.4197 196.525 58.4735C196.542 58.5272 196.572 58.5761 196.612 58.6161C196.651 58.6562 196.7 58.6863 196.754 58.7039C196.807 58.7215 196.864 58.7262 196.92 58.7176H202.81C202.871 58.7245 202.932 58.7175 202.99 58.6971C203.048 58.6767 203.101 58.6434 203.144 58.5998C203.187 58.5562 203.22 58.5033 203.24 58.4452C203.26 58.3871 203.266 58.3252 203.259 58.2642L200.045 44.2178ZM216.708 43.0255C216.307 43.0394 215.907 42.9723 215.533 42.8283C215.158 42.6843 214.817 42.4664 214.528 42.1874C214.239 41.9084 214.01 41.5741 213.853 41.2045C213.696 40.8349 213.615 40.4375 213.615 40.036C213.615 39.6344 213.696 39.237 213.853 38.8674C214.01 38.4978 214.239 38.1635 214.528 37.8846C214.817 37.6056 215.158 37.3876 215.533 37.2436C215.907 37.0996 216.307 37.0325 216.708 37.0464C217.506 37.0435 218.273 37.3563 218.842 37.9166C219.41 38.4769 219.735 39.2393 219.744 40.0378C219.743 40.4339 219.663 40.8259 219.509 41.1911C219.356 41.5562 219.131 41.8872 218.849 42.1651C218.566 42.4429 218.232 42.662 217.865 42.8097C217.497 42.9573 217.104 43.0307 216.708 43.0255ZM219.291 70.7579H214.129V44.9424H219.291V70.7579ZM242.158 62.8405C242.158 68.2342 239.304 71.5861 232.194 71.5861C224.542 71.5861 222.505 69.4443 222.505 61.6161H227.856C227.856 65.3321 228.263 66.5565 232.202 66.5565C235.826 66.5565 236.597 65.1964 236.597 62.7512C236.597 61.0735 236.368 60.074 233.108 57.8109L230.075 55.6691C226.269 52.9955 222.512 51.0465 222.512 45.385C222.512 40.5803 224.913 37 232.337 37C240.036 37 241.848 39.0383 241.848 46.381H236.589C236.589 42.3009 235.048 41.9832 232.194 41.9832C228.984 41.9832 227.985 43.254 227.985 45.4279C227.985 46.97 228.438 48.0123 232.622 50.7323L236.061 52.9955C239.008 54.9445 241.723 57.4825 242.087 60.9736C242.112 61.6161 242.158 62.2515 242.158 62.8405ZM137.928 74.648L132.038 107.728H126.652L123.98 91.5073C123.933 91.3717 123.844 91.2788 123.751 91.2788C123.685 91.2739 123.62 91.295 123.569 91.3377C123.518 91.3804 123.486 91.4413 123.48 91.5073L120.583 107.728H115.186L109.746 74.648H114.997L117.633 93.5491C117.628 93.5917 117.633 93.635 117.647 93.6756C117.66 93.7162 117.683 93.7531 117.714 93.7837C117.744 93.8142 117.78 93.8375 117.821 93.8519C117.861 93.8663 117.904 93.8714 117.947 93.8668C118.037 93.8528 118.119 93.8107 118.184 93.7465C118.248 93.6823 118.29 93.5995 118.304 93.5099L121.201 74.6551H126.455L129.088 93.5491C129.083 93.5921 129.088 93.6357 129.102 93.6766C129.116 93.7175 129.139 93.7546 129.17 93.7852C129.2 93.8158 129.237 93.8391 129.278 93.8532C129.319 93.8673 129.363 93.872 129.406 93.8668C129.495 93.8528 129.578 93.8107 129.642 93.7465C129.706 93.6823 129.748 93.5995 129.762 93.5099L132.659 74.6551L137.928 74.648ZM142.402 79.9846C142.001 79.9984 141.601 79.9314 141.226 79.7874C140.852 79.6434 140.51 79.4254 140.221 79.1464C139.933 78.8674 139.703 78.5332 139.546 78.1636C139.39 77.7939 139.309 77.3965 139.309 76.995C139.309 76.5935 139.39 76.1961 139.546 75.8264C139.703 75.4568 139.933 75.1226 140.221 74.8436C140.51 74.5646 140.852 74.3466 141.226 74.2026C141.601 74.0586 142.001 73.9916 142.402 74.0054C142.803 73.9916 143.202 74.0586 143.577 74.2026C143.952 74.3466 144.293 74.5646 144.582 74.8436C144.871 75.1226 145.1 75.4568 145.257 75.8264C145.414 76.1961 145.494 76.5935 145.494 76.995C145.494 77.3965 145.414 77.7939 145.257 78.1636C145.1 78.5332 144.871 78.8674 144.582 79.1464C144.293 79.4254 143.952 79.6434 143.577 79.7874C143.202 79.9314 142.803 79.9984 142.402 79.9846ZM144.981 107.717H139.819V81.9014H144.981V107.717ZM166.492 79.4063H160.603C160.321 79.4255 160.058 79.5557 159.871 79.7684C159.685 79.9811 159.59 80.259 159.607 80.5414V107.728H154.445V80.495C154.445 79.8596 154.174 79.4063 153.586 79.4063H147.56V74.6051H166.492V79.4063ZM186.445 107.728H181.297V96.6261C181.297 96.0835 181.115 95.7194 180.484 95.7194H174.551C174.329 95.7462 174.123 95.8528 173.973 96.0195C173.823 96.1862 173.738 96.4017 173.734 96.6261V107.728H168.166V74.648H173.734V89.8296C173.72 90.0372 173.786 90.2424 173.919 90.4025C174.052 90.5627 174.241 90.6656 174.448 90.6898H180.473C180.969 90.6898 181.287 90.4186 181.287 89.7403V74.648H186.445V107.728ZM196.791 107.049C196.796 107.14 196.782 107.23 196.75 107.315C196.717 107.4 196.668 107.476 196.604 107.541C196.54 107.605 196.463 107.654 196.378 107.687C196.294 107.719 196.203 107.733 196.113 107.728H192.082C191.991 107.733 191.9 107.72 191.815 107.688C191.73 107.656 191.653 107.606 191.588 107.542C191.524 107.478 191.474 107.401 191.441 107.316C191.409 107.231 191.395 107.14 191.4 107.049V103.016C191.395 102.925 191.409 102.834 191.441 102.749C191.474 102.664 191.524 102.587 191.588 102.523C191.653 102.459 191.73 102.409 191.815 102.377C191.9 102.345 191.991 102.332 192.082 102.338H196.113C196.203 102.332 196.294 102.346 196.378 102.379C196.463 102.411 196.54 102.461 196.604 102.525C196.668 102.589 196.717 102.666 196.75 102.75C196.782 102.835 196.796 102.925 196.791 103.016V107.049ZM208.738 107.049C208.743 107.14 208.729 107.23 208.697 107.315C208.665 107.4 208.615 107.476 208.551 107.541C208.487 107.605 208.41 107.654 208.325 107.687C208.241 107.719 208.15 107.733 208.06 107.728H204.029C203.938 107.733 203.847 107.72 203.762 107.688C203.677 107.656 203.6 107.606 203.536 107.542C203.471 107.478 203.421 107.401 203.389 107.316C203.356 107.231 203.342 107.14 203.347 107.049V103.016C203.342 102.925 203.356 102.834 203.389 102.749C203.421 102.664 203.471 102.587 203.536 102.523C203.6 102.459 203.677 102.409 203.762 102.377C203.847 102.345 203.938 102.332 204.029 102.338H208.06C208.15 102.332 208.241 102.346 208.325 102.379C208.41 102.411 208.487 102.461 208.551 102.525C208.615 102.589 208.665 102.666 208.697 102.75C208.729 102.835 208.743 102.925 208.738 103.016V107.049ZM220.692 107.049C220.692 107.049 220.683 107.23 220.651 107.315C220.619 107.4 220.569 107.476 220.505 107.541C220.441 107.605 220.364 107.654 220.28 107.687C220.195 107.719 220.105 107.733 220.014 107.728H215.983C215.893 107.733 215.802 107.72 215.717 107.688C215.632 107.656 215.555 107.606 215.49 107.542C215.426 107.478 215.376 107.401 215.343 107.316C215.311 107.231 215.297 107.14 215.302 107.049V103.016C215.297 102.925 215.311 102.834 215.343 102.749C215.376 102.664 215.426 102.587 215.49 102.523C215.555 102.459 215.632 102.409 215.717 102.377C215.802 102.345 215.893 102.332 215.983 102.338H220.014C220.105 102.332 220.195 102.346 220.28 102.379C220.364 102.411 220.441 102.461 220.505 102.525C220.569 102.589 220.619 102.666 220.651 102.75C220.683 102.835 220.697 102.925 220.692 103.016V107.049Z" fill="#36223E"/>
<path d="M1 10V1C1 1 18.2241 1.94737 29.2605 1.94737C40.484 1.94737 58 1 58 1V10C58 10 40.484 8.10526 29.2605 8.10526C18.2241 8.10526 1 10 1 10Z" fill="#D4BC96" stroke="#5F6336" stroke-linejoin="round"/>
<path d="M58 10V1C58 1 74.9219 1.94737 85.7647 1.94737C96.7913 1.94737 114 1 114 1V10C114 10 96.7913 8.10526 85.7647 8.10526C74.9219 8.10526 58 10 58 10Z" fill="#D4BC96" stroke="#5F6336" stroke-linejoin="round"/>
<path d="M114 10V1C114 1 130.922 1.94737 141.765 1.94737C152.791 1.94737 170 1 170 1V10C170 10 152.791 8.10526 141.765 8.10526C130.922 8.10526 114 10 114 10Z" fill="#D4BC96" stroke="#5F6336" stroke-linejoin="round"/>
<path d="M170 10V1C170 1 186.922 1.94737 197.765 1.94737C208.791 1.94737 226 1 226 1V10C226 10 208.791 8.10526 197.765 8.10526C186.922 8.10526 170 10 170 10Z" fill="#D4BC96" stroke="#5F6336" stroke-linejoin="round"/>
<path d="M226 10V1C226 1 242.922 1.94737 253.765 1.94737C264.791 1.94737 282 1 282 1V10C282 10 264.791 8.10526 253.765 8.10526C242.922 8.10526 226 10 226 10Z" fill="#D4BC96" stroke="#5F6336" stroke-linejoin="round"/>
<path d="M1 146V137C1 137 18.2241 137.947 29.2605 137.947C40.484 137.947 58 137 58 137V146C58 146 40.484 144.105 29.2605 144.105C18.2241 144.105 1 146 1 146Z" fill="#D5BC97" stroke="#5F6336" stroke-linejoin="round"/>
<path d="M58 146V137C58 137 74.9219 137.947 85.7647 137.947C96.7913 137.947 114 137 114 137V146C114 146 96.7913 144.105 85.7647 144.105C74.9219 144.105 58 146 58 146Z" fill="#D4BC96" stroke="#5F6336" stroke-linejoin="round"/>
<path d="M114 146V137C114 137 130.922 137.947 141.765 137.947C152.791 137.947 170 137 170 137V146C170 146 152.791 144.105 141.765 144.105C130.922 144.105 114 146 114 146Z" fill="#D4BC96" stroke="#5F6336" stroke-linejoin="round"/>
<path d="M170 146V137C170 137 186.922 137.947 197.765 137.947C208.791 137.947 226 137 226 137V146C226 146 208.791 144.105 197.765 144.105C186.922 144.105 170 146 170 146Z" fill="#D4BC96" stroke="#5F6336" stroke-linejoin="round"/>
<path d="M226 146V137C226 137 242.922 137.947 253.765 137.947C264.791 137.947 282 137 282 137V146C282 146 264.791 144.105 253.765 144.105C242.922 144.105 226 146 226 146Z" fill="#D4BC96" stroke="#5F6336" stroke-linejoin="round"/>
<path d="M26 52.5193H86L80.3 106.519H32L26 52.5193Z" fill="#BD482E"/>
<path d="M29 60.3193H83L79.328 95.3265C79.328 95.3265 71.1024 97.5193 55.6488 97.5193C40.1951 97.5193 32.96 95.3265 32.96 95.3265L29 60.3193Z" fill="#F5EAD4"/>
<path d="M31.4 88.5193C40.7711 83.8331 55.9963 76.5193 55.9963 76.5193L80.6 88.5193" stroke="#BD482E" stroke-width="2"/>
<path d="M81.2 80.1194L56.0112 97.5193C56.0112 97.5193 40.6456 86.9145 30.8 80.1193" stroke="#BD482E" stroke-width="2"/>
<path d="M32 98.1193L50.9 88.5193L74.6 76.5193L82.1 80.2231" stroke="#BD482E" stroke-width="2"/>
<path d="M78.7999 96.9193L61.6999 88.5193L37.4 76.5193L30.2 80.1649" stroke="#BD482E" stroke-width="2"/>
</svg>
