<svg data-name="Layer 1" xmlns="http://www.w3.org/2000/svg" viewBox="0 0 997.92 433.01"><path d="M309.58 428.85h-14.47v-32.24c0-1-.51-1.53-1-1.53a1.21 1.21 0 00-1 1l-9.27 32.75h-9.26l-9.78-32.37c-.25-1-.76-1.52-1.14-1.52s-1 .76-1 2v31.86h-14.52v-92.87h14.47l15 53.19c.38 1.52 1.15 2.28 1.91 2.28s1.39-.76 1.78-2.28l13.83-53.19h14.47zM379.4 428.72h-15.11l-4.7-20.81a1.57 1.57 0 00-1.77-1.4h-21.46a1.87 1.87 0 00-1.78 1.14l-4.58 21.2h-14.58l21.32-92.8H359zm-31.74-74.38c-.13-.26-.25-.39-.51-.39s-.51.13-.51.39l-8.88 39.47a1 1 0 001.14 1.19h16.5a1.14 1.14 0 001.27-1.27zM394.37 351a8.38 8.38 0 110-16.75 8.48 8.48 0 018.51 8.38 8.4 8.4 0 01-8.51 8.37zm7.24 77.69h-14.48v-72.32h14.48zM496.43 349.38h-16.51a3 3 0 00-2.79 3.18v76.16h-14.47v-76.29c0-1.78-.76-3.05-2.41-3.05h-16.89v-13.45h53.07zM553.17 428.72h-15.11l-4.7-20.81a1.57 1.57 0 00-1.77-1.4h-21.46a1.84 1.84 0 00-1.77 1.14l-4.57 21.2h-14.6l21.32-92.8h22.22zm-31.74-74.38c-.12-.26-.25-.39-.51-.39s-.5.13-.5.39l-8.89 39.47a1 1 0 001.14 1.15h16.51a1.14 1.14 0 001.26-1.27zM568.14 351a8.38 8.38 0 110-16.75 8.48 8.48 0 018.51 8.38 8.4 8.4 0 01-8.51 8.37zm7.24 77.69h-14.47v-72.32h14.47zM639.48 406.51c0 15.11-8 24.5-27.93 24.5-21.45 0-27.16-6-27.16-27.93h15c0 10.41 1.14 13.84 12.18 13.84 10.16 0 12.32-3.81 12.32-10.66 0-4.7-.64-7.5-9.78-13.84l-8.5-6c-10.67-7.49-21.2-12.95-21.2-28.81 0-13.46 6.73-23.49 27.54-23.49 21.58 0 26.66 5.71 26.66 26.28h-14.74c0-11.43-4.32-12.32-12.32-12.32-9 0-11.8 3.56-11.8 9.65 0 4.32 1.27 7.24 13 14.86l9.64 6.34c8.26 5.46 15.87 12.57 16.89 22.35.07 1.8.2 3.58.2 5.23zM754 336.05l-16.51 92.67h-15.1l-7.49-45.44c-.13-.38-.38-.64-.64-.64a.71.71 0 00-.76.64l-8.12 45.44h-15.13L675 336.05h14.72l7.39 52.95a.8.8 0 00.88.89 1.2 1.2 0 001-1l8.12-52.82h14.73l7.38 52.93a.8.8 0 00.89.89 1.2 1.2 0 001-1l8.12-52.82zM766.54 351a8.38 8.38 0 110-16.75 8.38 8.38 0 110 16.75zm7.23 77.69H759.3v-72.32h14.47zM834.07 349.38h-16.51a3 3 0 00-2.79 3.18v76.16H800.3v-76.29c0-1.78-.76-3.05-2.41-3.05H781v-13.45h53.07zM890 428.72h-14.43v-31.1c0-1.52-.51-2.54-2.28-2.54h-16.63a2.6 2.6 0 00-2.29 2.54v31.1h-15.61v-92.67h15.61v42.53a2.27 2.27 0 002 2.41h16.89c1.39 0 2.28-.76 2.28-2.66v-42.28H890zM919 426.82a1.8 1.8 0 01-1.9 1.9h-11.3a1.8 1.8 0 01-1.91-1.9v-11.3a1.8 1.8 0 011.91-1.9h11.3a1.8 1.8 0 011.9 1.9zM952.49 426.82a1.8 1.8 0 01-1.9 1.9h-11.3a1.8 1.8 0 01-1.91-1.9v-11.3a1.8 1.8 0 011.91-1.9h11.3a1.8 1.8 0 011.9 1.9zM986 426.82a1.8 1.8 0 01-1.9 1.9h-11.3a1.8 1.8 0 01-1.91-1.9v-11.3a1.8 1.8 0 011.91-1.9h11.3a1.8 1.8 0 011.9 1.9z"/><path d="M103.64 335.21c-35.83 0-66.92-21.63-81.27-52.68a76.37 76.37 0 01-3.29-54.86 176.88 176.88 0 00.5-104.26l167 3.55a164.82 164.82 0 00.46 97.17c8.75 27.86 2.68 58.5-16.43 80.35a88.93 88.93 0 01-66.97 30.73z" fill="#ffbc50"/><path fill="#f3eadc" d="M132.75 279.76L72.05 45.74 15.21 14.73l4.25-7.78 60.21 32.84 61.67 237.74-8.59 2.23zM134.373 156.813L204.791 8.446l6.405 3.04-70.418 148.367z"/><path d="M124.06 42.11l72-12.65 47.5 67s-11.13-1.44-36.13-5.7a125.51 125.51 0 01-62.35-29.95z" fill="#ff69ff"/><path fill="#fff" d="M184.398 65.718l9.239-27.595 1.678.562-9.238 27.595z"/><path fill="#fff" d="M158.702 41.151l35.667-3.623.178 1.761-35.666 3.623z"/><path fill="#fff" d="M193.091 38.43l1.711-.453 6.462 24.44-1.71.453z"/><path fill="#fff" d="M178.416 53.267l15.414-15.5 1.255 1.247-15.414 15.5z"/><path fill="#fff" d="M193.594 37.704l1.43-1.043 23.498 32.247-1.43 1.043z"/><path d="M104.09 431c-15.21 0-29.4-.46-39.95-1.29-16.53-1.3-21.31-3-21.31-7.37 0-4.93 5.12-8.53 16.1-11.34 8.09-2.07 19-3.53 31.07-4.17l3-32.33c.21-5 .21-10.1 0-15.11l-1.4-21.18a95.82 95.82 0 01-73.72-54.11 78.81 78.81 0 01-3.53-57.66 170.45 170.45 0 00.5-102.54l-7.14-23.24h192.67l-8.27 26.81a158.63 158.63 0 00.47 95.43 87.15 87.15 0 01-17.5 84.1 94.88 94.88 0 01-58.62 31.22L115 360.49c-.18 4.26-.18 8.67 0 13l3.11 33.34c12 .63 23 2.1 31.11 4.17 11 2.8 16.12 6.41 16.12 11.34 0 4.42-4.78 6.07-21.3 7.37-10.56.84-24.75 1.29-39.95 1.29zm-52.38-9.93c7.24 1.51 26.53 2.84 52.38 2.84s45.13-1.33 52.37-2.84c-4.74-2.67-18.37-6.35-41.74-7.3l-3.1-.12-3.7-39.76c-.2-4.58-.2-9.22 0-13.8l1.84-28.3 3-.3a87.75 87.75 0 0057-29.22 80 80 0 0016-77.23 165.68 165.68 0 01-.49-99.67l5.44-17.63H17.33l4.34 14.07a177.46 177.46 0 01-.53 106.79 71.78 71.78 0 003.2 52.48 88.6 88.6 0 0071 50.41l3 .3 1.8 27.21c.23 5.33.23 10.65 0 15.9v.18l-3.64 38.57-3.1.13c-23.34.95-36.95 4.63-41.69 7.3z"/><rect x="198.21" y="10.95" width="11.24" height="15.96" rx="2.75" transform="rotate(25.39 203.807 18.924)" fill="#ffb3ff"/></svg>